<mxfile host="app.diagrams.net" modified="2023-08-01T03:57:17.327Z" agent="Mozilla/5.0 (Windows NT 10.0; Win64; x64) AppleWebKit/537.36 (KHTML, like Gecko) Chrome/114.0.0.0 Safari/537.36 OPR/100.0.0.0" etag="Flh1SmTIwcnONhwDNhdj" version="21.6.6" type="device">
  <diagram name="Trang-1" id="n9aTk2iWpXi2voR9464s">
    <mxGraphModel dx="1857" dy="2245" grid="1" gridSize="10" guides="1" tooltips="1" connect="1" arrows="1" fold="1" page="1" pageScale="1" pageWidth="827" pageHeight="1169" math="0" shadow="0">
      <root>
        <mxCell id="0" />
        <mxCell id="1" parent="0" />
        <mxCell id="Oxyt1BQLvzEJ15N276z0-2" value="" style="shape=folder;fontStyle=1;spacingTop=10;tabWidth=50;tabHeight=20;tabPosition=left;html=1;whiteSpace=wrap;" vertex="1" parent="1">
          <mxGeometry x="20" y="70" width="630" height="640" as="geometry" />
        </mxCell>
        <mxCell id="Oxyt1BQLvzEJ15N276z0-3" value="Actor" style="text;align=center;fontStyle=1;verticalAlign=middle;spacingLeft=3;spacingRight=3;strokeColor=none;rotatable=0;points=[[0,0.5],[1,0.5]];portConstraint=eastwest;html=1;" vertex="1" parent="1">
          <mxGeometry x="10" y="70" width="80" height="26" as="geometry" />
        </mxCell>
        <mxCell id="Oxyt1BQLvzEJ15N276z0-10" value="&lt;p style=&quot;margin:0px;margin-top:4px;text-align:center;&quot;&gt;&lt;b&gt;User&lt;/b&gt;&lt;/p&gt;&lt;hr size=&quot;1&quot;&gt;&lt;p style=&quot;margin:0px;margin-left:4px;&quot;&gt;-userName&lt;/p&gt;&lt;p style=&quot;margin:0px;margin-left:4px;&quot;&gt;-passWord&lt;/p&gt;&lt;p style=&quot;margin:0px;margin-left:4px;&quot;&gt;-avatar&lt;/p&gt;&lt;p style=&quot;margin:0px;margin-left:4px;&quot;&gt;-email&lt;/p&gt;&lt;p style=&quot;margin:0px;margin-left:4px;&quot;&gt;-favoriteList&lt;/p&gt;&lt;hr size=&quot;1&quot;&gt;&lt;p style=&quot;margin:0px;margin-left:4px;&quot;&gt;+ signUp()&lt;/p&gt;&lt;p style=&quot;margin:0px;margin-left:4px;&quot;&gt;+signIn()&lt;/p&gt;&lt;p style=&quot;margin:0px;margin-left:4px;&quot;&gt;+searchPodcast()&lt;/p&gt;&lt;p style=&quot;margin:0px;margin-left:4px;&quot;&gt;+ratePodcast()&lt;/p&gt;&lt;p style=&quot;margin:0px;margin-left:4px;&quot;&gt;+commentPodcast()&lt;/p&gt;&lt;p style=&quot;margin:0px;margin-left:4px;&quot;&gt;+addToList()&lt;/p&gt;&lt;p style=&quot;margin:0px;margin-left:4px;&quot;&gt;+removeFromList()&lt;/p&gt;&lt;p style=&quot;margin:0px;margin-left:4px;&quot;&gt;+registerPremium()&lt;/p&gt;" style="verticalAlign=top;align=left;overflow=fill;fontSize=12;fontFamily=Helvetica;html=1;whiteSpace=wrap;" vertex="1" parent="1">
          <mxGeometry x="30" y="140" width="160" height="260" as="geometry" />
        </mxCell>
        <mxCell id="Oxyt1BQLvzEJ15N276z0-11" value="Host" style="swimlane;fontStyle=1;align=center;verticalAlign=top;childLayout=stackLayout;horizontal=1;startSize=26;horizontalStack=0;resizeParent=1;resizeParentMax=0;resizeLast=0;collapsible=1;marginBottom=0;whiteSpace=wrap;html=1;" vertex="1" parent="1">
          <mxGeometry x="340" y="150" width="160" height="220" as="geometry" />
        </mxCell>
        <mxCell id="Oxyt1BQLvzEJ15N276z0-12" value="&lt;p style=&quot;border-color: var(--border-color); margin: 0px 0px 0px 4px;&quot;&gt;-userName&lt;/p&gt;&lt;p style=&quot;border-color: var(--border-color); margin: 0px 0px 0px 4px;&quot;&gt;-passWord&lt;/p&gt;&lt;p style=&quot;border-color: var(--border-color); margin: 0px 0px 0px 4px;&quot;&gt;-avatar&lt;/p&gt;&lt;p style=&quot;border-color: var(--border-color); margin: 0px 0px 0px 4px;&quot;&gt;-email&lt;/p&gt;&lt;p style=&quot;border-color: var(--border-color); margin: 0px 0px 0px 4px;&quot;&gt;-Podcast list&lt;/p&gt;" style="text;strokeColor=none;fillColor=none;align=left;verticalAlign=top;spacingLeft=4;spacingRight=4;overflow=hidden;rotatable=0;points=[[0,0.5],[1,0.5]];portConstraint=eastwest;whiteSpace=wrap;html=1;" vertex="1" parent="Oxyt1BQLvzEJ15N276z0-11">
          <mxGeometry y="26" width="160" height="84" as="geometry" />
        </mxCell>
        <mxCell id="Oxyt1BQLvzEJ15N276z0-13" value="" style="line;strokeWidth=1;fillColor=none;align=left;verticalAlign=middle;spacingTop=-1;spacingLeft=3;spacingRight=3;rotatable=0;labelPosition=right;points=[];portConstraint=eastwest;strokeColor=inherit;" vertex="1" parent="Oxyt1BQLvzEJ15N276z0-11">
          <mxGeometry y="110" width="160" height="8" as="geometry" />
        </mxCell>
        <mxCell id="Oxyt1BQLvzEJ15N276z0-14" value="+addPodcast()&lt;br&gt;+setToPremium()&lt;br&gt;+editPodcast()&lt;br&gt;+deletePodcast()&lt;br&gt;+editProfile()" style="text;strokeColor=none;fillColor=none;align=left;verticalAlign=top;spacingLeft=4;spacingRight=4;overflow=hidden;rotatable=0;points=[[0,0.5],[1,0.5]];portConstraint=eastwest;whiteSpace=wrap;html=1;" vertex="1" parent="Oxyt1BQLvzEJ15N276z0-11">
          <mxGeometry y="118" width="160" height="102" as="geometry" />
        </mxCell>
        <mxCell id="Oxyt1BQLvzEJ15N276z0-15" value="Premium User" style="swimlane;fontStyle=1;align=center;verticalAlign=top;childLayout=stackLayout;horizontal=1;startSize=26;horizontalStack=0;resizeParent=1;resizeParentMax=0;resizeLast=0;collapsible=1;marginBottom=0;whiteSpace=wrap;html=1;" vertex="1" parent="1">
          <mxGeometry x="30" y="480" width="160" height="140" as="geometry" />
        </mxCell>
        <mxCell id="Oxyt1BQLvzEJ15N276z0-16" value="-dayRemain&lt;br&gt;-paymentInfo" style="text;strokeColor=none;fillColor=none;align=left;verticalAlign=top;spacingLeft=4;spacingRight=4;overflow=hidden;rotatable=0;points=[[0,0.5],[1,0.5]];portConstraint=eastwest;whiteSpace=wrap;html=1;" vertex="1" parent="Oxyt1BQLvzEJ15N276z0-15">
          <mxGeometry y="26" width="160" height="44" as="geometry" />
        </mxCell>
        <mxCell id="Oxyt1BQLvzEJ15N276z0-17" value="" style="line;strokeWidth=1;fillColor=none;align=left;verticalAlign=middle;spacingTop=-1;spacingLeft=3;spacingRight=3;rotatable=0;labelPosition=right;points=[];portConstraint=eastwest;strokeColor=inherit;" vertex="1" parent="Oxyt1BQLvzEJ15N276z0-15">
          <mxGeometry y="70" width="160" height="8" as="geometry" />
        </mxCell>
        <mxCell id="Oxyt1BQLvzEJ15N276z0-18" value="+extendPremium&lt;br&gt;+cancelPremium" style="text;strokeColor=none;fillColor=none;align=left;verticalAlign=top;spacingLeft=4;spacingRight=4;overflow=hidden;rotatable=0;points=[[0,0.5],[1,0.5]];portConstraint=eastwest;whiteSpace=wrap;html=1;" vertex="1" parent="Oxyt1BQLvzEJ15N276z0-15">
          <mxGeometry y="78" width="160" height="62" as="geometry" />
        </mxCell>
        <mxCell id="Oxyt1BQLvzEJ15N276z0-19" value="Extends" style="endArrow=block;endSize=16;endFill=0;html=1;rounded=0;entryX=0.5;entryY=1;entryDx=0;entryDy=0;exitX=0.5;exitY=0;exitDx=0;exitDy=0;" edge="1" parent="1" source="Oxyt1BQLvzEJ15N276z0-15" target="Oxyt1BQLvzEJ15N276z0-10">
          <mxGeometry width="160" relative="1" as="geometry">
            <mxPoint x="330" y="420" as="sourcePoint" />
            <mxPoint x="490" y="420" as="targetPoint" />
          </mxGeometry>
        </mxCell>
        <mxCell id="Oxyt1BQLvzEJ15N276z0-20" value="Admin" style="swimlane;fontStyle=1;align=center;verticalAlign=top;childLayout=stackLayout;horizontal=1;startSize=26;horizontalStack=0;resizeParent=1;resizeParentMax=0;resizeLast=0;collapsible=1;marginBottom=0;whiteSpace=wrap;html=1;" vertex="1" parent="1">
          <mxGeometry x="340" y="420" width="160" height="220" as="geometry" />
        </mxCell>
        <mxCell id="Oxyt1BQLvzEJ15N276z0-21" value="+ID&lt;br&gt;-name&lt;br&gt;-password&lt;br&gt;-status" style="text;strokeColor=none;fillColor=none;align=left;verticalAlign=top;spacingLeft=4;spacingRight=4;overflow=hidden;rotatable=0;points=[[0,0.5],[1,0.5]];portConstraint=eastwest;whiteSpace=wrap;html=1;" vertex="1" parent="Oxyt1BQLvzEJ15N276z0-20">
          <mxGeometry y="26" width="160" height="74" as="geometry" />
        </mxCell>
        <mxCell id="Oxyt1BQLvzEJ15N276z0-22" value="" style="line;strokeWidth=1;fillColor=none;align=left;verticalAlign=middle;spacingTop=-1;spacingLeft=3;spacingRight=3;rotatable=0;labelPosition=right;points=[];portConstraint=eastwest;strokeColor=inherit;" vertex="1" parent="Oxyt1BQLvzEJ15N276z0-20">
          <mxGeometry y="100" width="160" height="8" as="geometry" />
        </mxCell>
        <mxCell id="Oxyt1BQLvzEJ15N276z0-23" value="+manageUser()&lt;br&gt;+managePodcast()&lt;br&gt;+modifyPremiumPlan()&lt;br&gt;+updateFAQ()&lt;br&gt;+helpUser()&lt;br&gt;+viewInsights()&lt;br&gt;+viewAnalytics()" style="text;strokeColor=none;fillColor=none;align=left;verticalAlign=top;spacingLeft=4;spacingRight=4;overflow=hidden;rotatable=0;points=[[0,0.5],[1,0.5]];portConstraint=eastwest;whiteSpace=wrap;html=1;" vertex="1" parent="Oxyt1BQLvzEJ15N276z0-20">
          <mxGeometry y="108" width="160" height="112" as="geometry" />
        </mxCell>
        <mxCell id="Oxyt1BQLvzEJ15N276z0-24" value="" style="shape=folder;fontStyle=1;spacingTop=10;tabWidth=40;tabHeight=14;tabPosition=left;html=1;whiteSpace=wrap;" vertex="1" parent="1">
          <mxGeometry x="720" y="110" width="1110" height="890" as="geometry" />
        </mxCell>
        <mxCell id="Oxyt1BQLvzEJ15N276z0-25" value="Service" style="text;align=center;fontStyle=1;verticalAlign=middle;spacingLeft=3;spacingRight=3;strokeColor=none;rotatable=0;points=[[0,0.5],[1,0.5]];portConstraint=eastwest;html=1;" vertex="1" parent="1">
          <mxGeometry x="747" y="150" width="80" height="26" as="geometry" />
        </mxCell>
        <mxCell id="Oxyt1BQLvzEJ15N276z0-31" value="" style="shape=folder;fontStyle=1;spacingTop=10;tabWidth=40;tabHeight=14;tabPosition=left;html=1;whiteSpace=wrap;" vertex="1" parent="1">
          <mxGeometry x="747" y="200" width="445" height="400" as="geometry" />
        </mxCell>
        <mxCell id="Oxyt1BQLvzEJ15N276z0-32" value="User Package" style="text;align=center;fontStyle=1;verticalAlign=middle;spacingLeft=3;spacingRight=3;strokeColor=none;rotatable=0;points=[[0,0.5],[1,0.5]];portConstraint=eastwest;html=1;" vertex="1" parent="1">
          <mxGeometry x="745" y="220" width="110" height="30" as="geometry" />
        </mxCell>
        <mxCell id="Oxyt1BQLvzEJ15N276z0-33" value="&lt;p style=&quot;margin:0px;margin-top:4px;text-align:center;&quot;&gt;&lt;b&gt;User Repository&lt;/b&gt;&lt;/p&gt;&lt;p style=&quot;margin:0px;margin-left:4px;&quot;&gt;&lt;br&gt;&lt;/p&gt;&lt;hr size=&quot;1&quot;&gt;&lt;p style=&quot;margin:0px;margin-left:4px;&quot;&gt;+creatingAccount()&lt;/p&gt;&lt;p style=&quot;margin:0px;margin-left:4px;&quot;&gt;+getUserByID()&lt;/p&gt;&lt;p style=&quot;margin:0px;margin-left:4px;&quot;&gt;+editProfile()&lt;/p&gt;&lt;p style=&quot;margin:0px;margin-left:4px;&quot;&gt;+fetchingData()&lt;/p&gt;&lt;p style=&quot;margin:0px;margin-left:4px;&quot;&gt;+disableAccount()&lt;/p&gt;" style="verticalAlign=top;align=left;overflow=fill;fontSize=12;fontFamily=Helvetica;html=1;whiteSpace=wrap;" vertex="1" parent="1">
          <mxGeometry x="760" y="250" width="160" height="120" as="geometry" />
        </mxCell>
        <mxCell id="Oxyt1BQLvzEJ15N276z0-34" value="&lt;p style=&quot;margin:0px;margin-top:4px;text-align:center;&quot;&gt;&lt;b&gt;AuthService&lt;/b&gt;&lt;/p&gt;&lt;p style=&quot;margin:0px;margin-left:4px;&quot;&gt;&lt;br&gt;&lt;/p&gt;&lt;hr size=&quot;1&quot;&gt;&lt;p style=&quot;margin:0px;margin-left:4px;&quot;&gt;+registration()&lt;/p&gt;&lt;p style=&quot;margin:0px;margin-left:4px;&quot;&gt;+login()&lt;/p&gt;&lt;p style=&quot;margin:0px;margin-left:4px;&quot;&gt;+logout()&lt;/p&gt;&lt;p style=&quot;margin:0px;margin-left:4px;&quot;&gt;+manageSessionToken()&lt;/p&gt;" style="verticalAlign=top;align=left;overflow=fill;fontSize=12;fontFamily=Helvetica;html=1;whiteSpace=wrap;" vertex="1" parent="1">
          <mxGeometry x="980" y="250" width="160" height="120" as="geometry" />
        </mxCell>
        <mxCell id="Oxyt1BQLvzEJ15N276z0-35" value="&lt;p style=&quot;margin:0px;margin-top:4px;text-align:center;&quot;&gt;&lt;b&gt;AuthService&lt;/b&gt;&lt;/p&gt;&lt;p style=&quot;margin:0px;margin-left:4px;&quot;&gt;&lt;br&gt;&lt;/p&gt;&lt;hr size=&quot;1&quot;&gt;&lt;p style=&quot;margin:0px;margin-left:4px;&quot;&gt;+registration()&lt;/p&gt;&lt;p style=&quot;margin:0px;margin-left:4px;&quot;&gt;+login()&lt;/p&gt;&lt;p style=&quot;margin:0px;margin-left:4px;&quot;&gt;+logout()&lt;/p&gt;&lt;p style=&quot;margin:0px;margin-left:4px;&quot;&gt;+manageSessionToken()&lt;/p&gt;" style="verticalAlign=top;align=left;overflow=fill;fontSize=12;fontFamily=Helvetica;html=1;whiteSpace=wrap;" vertex="1" parent="1">
          <mxGeometry x="980" y="250" width="160" height="120" as="geometry" />
        </mxCell>
        <mxCell id="Oxyt1BQLvzEJ15N276z0-37" value="Favorite List" style="swimlane;fontStyle=1;align=center;verticalAlign=top;childLayout=stackLayout;horizontal=1;startSize=26;horizontalStack=0;resizeParent=1;resizeParentMax=0;resizeLast=0;collapsible=1;marginBottom=0;whiteSpace=wrap;html=1;" vertex="1" parent="1">
          <mxGeometry x="760" y="410" width="160" height="150" as="geometry" />
        </mxCell>
        <mxCell id="Oxyt1BQLvzEJ15N276z0-38" value="-podcastList" style="text;strokeColor=none;fillColor=none;align=left;verticalAlign=top;spacingLeft=4;spacingRight=4;overflow=hidden;rotatable=0;points=[[0,0.5],[1,0.5]];portConstraint=eastwest;whiteSpace=wrap;html=1;" vertex="1" parent="Oxyt1BQLvzEJ15N276z0-37">
          <mxGeometry y="26" width="160" height="26" as="geometry" />
        </mxCell>
        <mxCell id="Oxyt1BQLvzEJ15N276z0-39" value="" style="line;strokeWidth=1;fillColor=none;align=left;verticalAlign=middle;spacingTop=-1;spacingLeft=3;spacingRight=3;rotatable=0;labelPosition=right;points=[];portConstraint=eastwest;strokeColor=inherit;" vertex="1" parent="Oxyt1BQLvzEJ15N276z0-37">
          <mxGeometry y="52" width="160" height="8" as="geometry" />
        </mxCell>
        <mxCell id="Oxyt1BQLvzEJ15N276z0-40" value="+addToFavorite()&lt;br&gt;+removeFromFavorite()&lt;br&gt;+getFavoritePodcast()&lt;br&gt;+isPodcastInFavorite()&lt;br&gt;" style="text;strokeColor=none;fillColor=none;align=left;verticalAlign=top;spacingLeft=4;spacingRight=4;overflow=hidden;rotatable=0;points=[[0,0.5],[1,0.5]];portConstraint=eastwest;whiteSpace=wrap;html=1;" vertex="1" parent="Oxyt1BQLvzEJ15N276z0-37">
          <mxGeometry y="60" width="160" height="90" as="geometry" />
        </mxCell>
        <mxCell id="Oxyt1BQLvzEJ15N276z0-41" value="&lt;p style=&quot;margin:0px;margin-top:4px;text-align:center;&quot;&gt;&lt;b&gt;Podcast Service&lt;/b&gt;&lt;/p&gt;&lt;hr size=&quot;1&quot;&gt;&lt;p style=&quot;margin:0px;margin-left:4px;&quot;&gt;+searchPodcast()&lt;/p&gt;&lt;p style=&quot;margin:0px;margin-left:4px;&quot;&gt;+getPodcastByID()&lt;/p&gt;&lt;p style=&quot;margin:0px;margin-left:4px;&quot;&gt;+ratePodcast()&lt;/p&gt;&lt;p style=&quot;margin:0px;margin-left:4px;&quot;&gt;+commentPodcast()&lt;/p&gt;&lt;p style=&quot;margin:0px;margin-left:4px;&quot;&gt;+addToList()&lt;/p&gt;&lt;p style=&quot;margin:0px;margin-left:4px;&quot;&gt;+removeFromList()&lt;/p&gt;&lt;p style=&quot;margin:0px;margin-left:4px;&quot;&gt;+isInFavorite()&lt;/p&gt;&lt;p style=&quot;margin:0px;margin-left:4px;&quot;&gt;+ListenPodcast&lt;/p&gt;" style="verticalAlign=top;align=left;overflow=fill;fontSize=12;fontFamily=Helvetica;html=1;whiteSpace=wrap;" vertex="1" parent="1">
          <mxGeometry x="980" y="410" width="160" height="160" as="geometry" />
        </mxCell>
        <mxCell id="Oxyt1BQLvzEJ15N276z0-42" value="" style="shape=folder;fontStyle=1;spacingTop=10;tabWidth=40;tabHeight=14;tabPosition=left;html=1;whiteSpace=wrap;" vertex="1" parent="1">
          <mxGeometry x="1280" y="200" width="230" height="410" as="geometry" />
        </mxCell>
        <mxCell id="Oxyt1BQLvzEJ15N276z0-43" value="Host package" style="text;align=center;fontStyle=1;verticalAlign=middle;spacingLeft=3;spacingRight=3;strokeColor=none;rotatable=0;points=[[0,0.5],[1,0.5]];portConstraint=eastwest;html=1;" vertex="1" parent="1">
          <mxGeometry x="1330" y="224" width="80" height="26" as="geometry" />
        </mxCell>
        <mxCell id="Oxyt1BQLvzEJ15N276z0-44" value="&lt;p style=&quot;margin:0px;margin-top:4px;text-align:center;&quot;&gt;&lt;b&gt;Host Repository&lt;/b&gt;&lt;/p&gt;&lt;p style=&quot;margin:0px;margin-left:4px;&quot;&gt;&lt;br&gt;&lt;/p&gt;&lt;hr size=&quot;1&quot;&gt;&lt;p style=&quot;margin:0px;margin-left:4px;&quot;&gt;+creatingAccount()&lt;/p&gt;&lt;p style=&quot;margin:0px;margin-left:4px;&quot;&gt;+getHostByID()&lt;/p&gt;&lt;p style=&quot;margin:0px;margin-left:4px;&quot;&gt;+editProfile()&lt;/p&gt;&lt;p style=&quot;margin:0px;margin-left:4px;&quot;&gt;+fetchingData()&lt;/p&gt;&lt;p style=&quot;margin:0px;margin-left:4px;&quot;&gt;+disableAccount()&lt;/p&gt;" style="verticalAlign=top;align=left;overflow=fill;fontSize=12;fontFamily=Helvetica;html=1;whiteSpace=wrap;" vertex="1" parent="1">
          <mxGeometry x="1340" y="260" width="160" height="120" as="geometry" />
        </mxCell>
        <mxCell id="Oxyt1BQLvzEJ15N276z0-45" value="&lt;p style=&quot;margin:0px;margin-top:4px;text-align:center;&quot;&gt;&lt;b&gt;Podcast Service&lt;/b&gt;&lt;/p&gt;&lt;hr size=&quot;1&quot;&gt;&lt;p style=&quot;margin:0px;margin-left:4px;&quot;&gt;+addPodcast()&lt;/p&gt;&lt;p style=&quot;margin:0px;margin-left:4px;&quot;&gt;+removePodCast()&lt;/p&gt;&lt;p style=&quot;margin:0px;margin-left:4px;&quot;&gt;+upGradeToPremium&lt;/p&gt;&lt;p style=&quot;margin:0px;margin-left:4px;&quot;&gt;+viewAnalytic()&lt;/p&gt;" style="verticalAlign=top;align=left;overflow=fill;fontSize=12;fontFamily=Helvetica;html=1;whiteSpace=wrap;" vertex="1" parent="1">
          <mxGeometry x="1340" y="405" width="160" height="160" as="geometry" />
        </mxCell>
        <mxCell id="Oxyt1BQLvzEJ15N276z0-46" value="PodCast" style="swimlane;fontStyle=1;align=center;verticalAlign=top;childLayout=stackLayout;horizontal=1;startSize=26;horizontalStack=0;resizeParent=1;resizeParentMax=0;resizeLast=0;collapsible=1;marginBottom=0;whiteSpace=wrap;html=1;" vertex="1" parent="1">
          <mxGeometry x="720" y="1060" width="160" height="170" as="geometry" />
        </mxCell>
        <mxCell id="Oxyt1BQLvzEJ15N276z0-47" value="-Author&lt;br&gt;-Publisher&lt;br&gt;-Content&lt;br&gt;-isPremium" style="text;strokeColor=none;fillColor=none;align=left;verticalAlign=top;spacingLeft=4;spacingRight=4;overflow=hidden;rotatable=0;points=[[0,0.5],[1,0.5]];portConstraint=eastwest;whiteSpace=wrap;html=1;" vertex="1" parent="Oxyt1BQLvzEJ15N276z0-46">
          <mxGeometry y="26" width="160" height="84" as="geometry" />
        </mxCell>
        <mxCell id="Oxyt1BQLvzEJ15N276z0-48" value="" style="line;strokeWidth=1;fillColor=none;align=left;verticalAlign=middle;spacingTop=-1;spacingLeft=3;spacingRight=3;rotatable=0;labelPosition=right;points=[];portConstraint=eastwest;strokeColor=inherit;" vertex="1" parent="Oxyt1BQLvzEJ15N276z0-46">
          <mxGeometry y="110" width="160" height="8" as="geometry" />
        </mxCell>
        <mxCell id="Oxyt1BQLvzEJ15N276z0-49" value="+Listen()&lt;br&gt;" style="text;strokeColor=none;fillColor=none;align=left;verticalAlign=top;spacingLeft=4;spacingRight=4;overflow=hidden;rotatable=0;points=[[0,0.5],[1,0.5]];portConstraint=eastwest;whiteSpace=wrap;html=1;" vertex="1" parent="Oxyt1BQLvzEJ15N276z0-46">
          <mxGeometry y="118" width="160" height="52" as="geometry" />
        </mxCell>
        <mxCell id="Oxyt1BQLvzEJ15N276z0-54" value="" style="shape=folder;fontStyle=1;spacingTop=10;tabWidth=40;tabHeight=14;tabPosition=left;html=1;whiteSpace=wrap;" vertex="1" parent="1">
          <mxGeometry x="1120" y="652.5" width="440" height="265" as="geometry" />
        </mxCell>
        <mxCell id="Oxyt1BQLvzEJ15N276z0-55" value="Payment" style="text;align=center;fontStyle=1;verticalAlign=middle;spacingLeft=3;spacingRight=3;strokeColor=none;rotatable=0;points=[[0,0.5],[1,0.5]];portConstraint=eastwest;html=1;" vertex="1" parent="1">
          <mxGeometry x="1140" y="682.5" width="80" height="26" as="geometry" />
        </mxCell>
        <mxCell id="Oxyt1BQLvzEJ15N276z0-56" value="Payment Process" style="swimlane;fontStyle=1;align=center;verticalAlign=top;childLayout=stackLayout;horizontal=1;startSize=26;horizontalStack=0;resizeParent=1;resizeParentMax=0;resizeLast=0;collapsible=1;marginBottom=0;whiteSpace=wrap;html=1;" vertex="1" parent="1">
          <mxGeometry x="1160" y="720" width="160" height="160" as="geometry" />
        </mxCell>
        <mxCell id="Oxyt1BQLvzEJ15N276z0-58" value="" style="line;strokeWidth=1;fillColor=none;align=left;verticalAlign=middle;spacingTop=-1;spacingLeft=3;spacingRight=3;rotatable=0;labelPosition=right;points=[];portConstraint=eastwest;strokeColor=inherit;" vertex="1" parent="Oxyt1BQLvzEJ15N276z0-56">
          <mxGeometry y="26" width="160" height="8" as="geometry" />
        </mxCell>
        <mxCell id="Oxyt1BQLvzEJ15N276z0-59" value="+processPayment()&lt;br&gt;+verifyPayment&lt;br&gt;+refundPayment()&lt;br&gt;+getDetail&lt;br&gt;+verifyTransaction&lt;br&gt;+getTransactionDetail&lt;br&gt;" style="text;strokeColor=none;fillColor=none;align=left;verticalAlign=top;spacingLeft=4;spacingRight=4;overflow=hidden;rotatable=0;points=[[0,0.5],[1,0.5]];portConstraint=eastwest;whiteSpace=wrap;html=1;" vertex="1" parent="Oxyt1BQLvzEJ15N276z0-56">
          <mxGeometry y="34" width="160" height="126" as="geometry" />
        </mxCell>
        <mxCell id="Oxyt1BQLvzEJ15N276z0-60" value="Payment Provider" style="swimlane;fontStyle=1;align=center;verticalAlign=top;childLayout=stackLayout;horizontal=1;startSize=26;horizontalStack=0;resizeParent=1;resizeParentMax=0;resizeLast=0;collapsible=1;marginBottom=0;whiteSpace=wrap;html=1;" vertex="1" parent="1">
          <mxGeometry x="1380" y="720" width="160" height="98" as="geometry" />
        </mxCell>
        <mxCell id="Oxyt1BQLvzEJ15N276z0-61" value="-name&lt;br&gt;-status&lt;br&gt;-paymentProcess" style="text;strokeColor=none;fillColor=none;align=left;verticalAlign=top;spacingLeft=4;spacingRight=4;overflow=hidden;rotatable=0;points=[[0,0.5],[1,0.5]];portConstraint=eastwest;whiteSpace=wrap;html=1;" vertex="1" parent="Oxyt1BQLvzEJ15N276z0-60">
          <mxGeometry y="26" width="160" height="64" as="geometry" />
        </mxCell>
        <mxCell id="Oxyt1BQLvzEJ15N276z0-62" value="" style="line;strokeWidth=1;fillColor=none;align=left;verticalAlign=middle;spacingTop=-1;spacingLeft=3;spacingRight=3;rotatable=0;labelPosition=right;points=[];portConstraint=eastwest;strokeColor=inherit;" vertex="1" parent="Oxyt1BQLvzEJ15N276z0-60">
          <mxGeometry y="90" width="160" height="8" as="geometry" />
        </mxCell>
        <mxCell id="Oxyt1BQLvzEJ15N276z0-64" value="" style="shape=folder;fontStyle=1;spacingTop=10;tabWidth=40;tabHeight=14;tabPosition=left;html=1;whiteSpace=wrap;" vertex="1" parent="1">
          <mxGeometry x="960" y="1040" width="540" height="170" as="geometry" />
        </mxCell>
        <mxCell id="Oxyt1BQLvzEJ15N276z0-65" value="Database" style="text;align=center;fontStyle=1;verticalAlign=middle;spacingLeft=3;spacingRight=3;strokeColor=none;rotatable=0;points=[[0,0.5],[1,0.5]];portConstraint=eastwest;html=1;" vertex="1" parent="1">
          <mxGeometry x="970" y="1060" width="80" height="26" as="geometry" />
        </mxCell>
        <mxCell id="Oxyt1BQLvzEJ15N276z0-66" value="Podcast Data" style="html=1;whiteSpace=wrap;" vertex="1" parent="1">
          <mxGeometry x="1019" y="1100" width="110" height="50" as="geometry" />
        </mxCell>
        <mxCell id="Oxyt1BQLvzEJ15N276z0-67" value="User Data" style="html=1;whiteSpace=wrap;" vertex="1" parent="1">
          <mxGeometry x="1170" y="1100" width="110" height="50" as="geometry" />
        </mxCell>
        <mxCell id="Oxyt1BQLvzEJ15N276z0-68" value="Payment Data" style="html=1;whiteSpace=wrap;" vertex="1" parent="1">
          <mxGeometry x="1330" y="1100" width="110" height="50" as="geometry" />
        </mxCell>
        <mxCell id="Oxyt1BQLvzEJ15N276z0-69" value="" style="shape=folder;fontStyle=1;spacingTop=10;tabWidth=40;tabHeight=14;tabPosition=left;html=1;whiteSpace=wrap;" vertex="1" parent="1">
          <mxGeometry x="720" y="-150" width="945" height="174" as="geometry" />
        </mxCell>
        <mxCell id="Oxyt1BQLvzEJ15N276z0-70" value="Home page" style="shape=folder;fontStyle=1;spacingTop=10;tabWidth=40;tabHeight=14;tabPosition=left;html=1;whiteSpace=wrap;" vertex="1" parent="1">
          <mxGeometry x="726" y="-86" width="116" height="66" as="geometry" />
        </mxCell>
        <mxCell id="Oxyt1BQLvzEJ15N276z0-71" value="Presentation layer" style="text;strokeColor=none;fillColor=none;align=left;verticalAlign=top;spacingLeft=4;spacingRight=4;overflow=hidden;rotatable=0;points=[[0,0.5],[1,0.5]];portConstraint=eastwest;whiteSpace=wrap;html=1;" vertex="1" parent="1">
          <mxGeometry x="732" y="-126" width="122" height="26" as="geometry" />
        </mxCell>
        <mxCell id="Oxyt1BQLvzEJ15N276z0-72" value="FAQ" style="shape=folder;fontStyle=1;spacingTop=10;tabWidth=39;tabHeight=18;tabPosition=left;html=1;whiteSpace=wrap;" vertex="1" parent="1">
          <mxGeometry x="861" y="-88" width="134" height="68" as="geometry" />
        </mxCell>
        <mxCell id="Oxyt1BQLvzEJ15N276z0-73" value="Podcast page" style="shape=folder;fontStyle=1;spacingTop=10;tabWidth=39;tabHeight=18;tabPosition=left;html=1;whiteSpace=wrap;" vertex="1" parent="1">
          <mxGeometry x="1019" y="-88" width="134" height="68" as="geometry" />
        </mxCell>
        <mxCell id="Oxyt1BQLvzEJ15N276z0-74" value="Payment page" style="shape=folder;fontStyle=1;spacingTop=10;tabWidth=39;tabHeight=18;tabPosition=left;html=1;whiteSpace=wrap;" vertex="1" parent="1">
          <mxGeometry x="1177" y="-87" width="134" height="68" as="geometry" />
        </mxCell>
        <mxCell id="Oxyt1BQLvzEJ15N276z0-75" value="About us" style="shape=folder;fontStyle=1;spacingTop=10;tabWidth=39;tabHeight=18;tabPosition=left;html=1;whiteSpace=wrap;" vertex="1" parent="1">
          <mxGeometry x="1335" y="-88" width="134" height="68" as="geometry" />
        </mxCell>
        <mxCell id="Oxyt1BQLvzEJ15N276z0-76" value="Notification" style="shape=folder;fontStyle=1;spacingTop=10;tabWidth=39;tabHeight=18;tabPosition=left;html=1;whiteSpace=wrap;" vertex="1" parent="1">
          <mxGeometry x="1496" y="-86" width="134" height="68" as="geometry" />
        </mxCell>
        <mxCell id="Oxyt1BQLvzEJ15N276z0-78" value="Access" style="endArrow=open;endSize=12;dashed=1;html=1;rounded=0;exitX=0;exitY=0;exitDx=340;exitDy=20;exitPerimeter=0;entryX=0;entryY=0;entryDx=0;entryDy=94;entryPerimeter=0;" edge="1" parent="1" source="Oxyt1BQLvzEJ15N276z0-2" target="Oxyt1BQLvzEJ15N276z0-69">
          <mxGeometry width="160" relative="1" as="geometry">
            <mxPoint x="460" y="20" as="sourcePoint" />
            <mxPoint x="620" y="20" as="targetPoint" />
            <Array as="points">
              <mxPoint x="360" y="-56" />
            </Array>
          </mxGeometry>
        </mxCell>
        <mxCell id="Oxyt1BQLvzEJ15N276z0-79" value="Use" style="endArrow=open;endSize=12;dashed=1;html=1;rounded=0;exitX=0.5;exitY=0;exitDx=0;exitDy=0;" edge="1" parent="1" source="Oxyt1BQLvzEJ15N276z0-10">
          <mxGeometry width="160" relative="1" as="geometry">
            <mxPoint x="460" y="350" as="sourcePoint" />
            <mxPoint x="750" y="280" as="targetPoint" />
            <Array as="points">
              <mxPoint x="110" y="40" />
              <mxPoint x="680" y="40" />
              <mxPoint x="680" y="280" />
            </Array>
          </mxGeometry>
        </mxCell>
        <mxCell id="Oxyt1BQLvzEJ15N276z0-80" value="Import" style="endArrow=open;endSize=12;dashed=1;html=1;rounded=0;exitX=1;exitY=0.5;exitDx=0;exitDy=0;entryX=0;entryY=0.5;entryDx=0;entryDy=0;" edge="1" parent="1" source="Oxyt1BQLvzEJ15N276z0-33" target="Oxyt1BQLvzEJ15N276z0-35">
          <mxGeometry width="160" relative="1" as="geometry">
            <mxPoint x="920" y="350" as="sourcePoint" />
            <mxPoint x="1080" y="350" as="targetPoint" />
          </mxGeometry>
        </mxCell>
        <mxCell id="Oxyt1BQLvzEJ15N276z0-83" value="Use" style="endArrow=open;endSize=12;dashed=1;html=1;rounded=0;exitX=0.5;exitY=0;exitDx=0;exitDy=0;entryX=0.003;entryY=0.096;entryDx=0;entryDy=0;entryPerimeter=0;" edge="1" parent="1" source="Oxyt1BQLvzEJ15N276z0-11" target="Oxyt1BQLvzEJ15N276z0-42">
          <mxGeometry width="160" relative="1" as="geometry">
            <mxPoint x="360" y="190" as="sourcePoint" />
            <mxPoint x="1170" y="90" as="targetPoint" />
            <Array as="points">
              <mxPoint x="420" y="60" />
              <mxPoint x="1260" y="60" />
              <mxPoint x="1260" y="243" />
            </Array>
          </mxGeometry>
        </mxCell>
        <mxCell id="Oxyt1BQLvzEJ15N276z0-84" value="" style="shape=folder;fontStyle=1;spacingTop=10;tabWidth=40;tabHeight=14;tabPosition=left;html=1;whiteSpace=wrap;" vertex="1" parent="1">
          <mxGeometry x="1584" y="224" width="206" height="666" as="geometry" />
        </mxCell>
        <mxCell id="Oxyt1BQLvzEJ15N276z0-86" value="Admin package" style="text;align=center;fontStyle=1;verticalAlign=middle;spacingLeft=3;spacingRight=3;strokeColor=none;rotatable=0;points=[[0,0.5],[1,0.5]];portConstraint=eastwest;html=1;" vertex="1" parent="1">
          <mxGeometry x="1620" y="247" width="80" height="26" as="geometry" />
        </mxCell>
        <mxCell id="Oxyt1BQLvzEJ15N276z0-87" value="&lt;p style=&quot;margin:0px;margin-top:4px;text-align:center;&quot;&gt;&lt;b&gt;Admin Repository&lt;/b&gt;&lt;/p&gt;&lt;hr size=&quot;1&quot;&gt;&lt;p style=&quot;margin:0px;margin-left:4px;&quot;&gt;+creatingAccount()&lt;/p&gt;&lt;p style=&quot;margin:0px;margin-left:4px;&quot;&gt;+getAdminByID()&lt;/p&gt;&lt;p style=&quot;margin:0px;margin-left:4px;&quot;&gt;+editProfile()&lt;/p&gt;&lt;p style=&quot;margin:0px;margin-left:4px;&quot;&gt;+fetchingData()&lt;/p&gt;&lt;p style=&quot;margin:0px;margin-left:4px;&quot;&gt;+disableAccount()&lt;/p&gt;" style="verticalAlign=top;align=left;overflow=fill;fontSize=12;fontFamily=Helvetica;html=1;whiteSpace=wrap;" vertex="1" parent="1">
          <mxGeometry x="1607" y="273" width="160" height="120" as="geometry" />
        </mxCell>
        <mxCell id="Oxyt1BQLvzEJ15N276z0-88" value="Admin User Service" style="swimlane;fontStyle=1;align=center;verticalAlign=top;childLayout=stackLayout;horizontal=1;startSize=26;horizontalStack=0;resizeParent=1;resizeParentMax=0;resizeLast=0;collapsible=1;marginBottom=0;whiteSpace=wrap;html=1;" vertex="1" parent="1">
          <mxGeometry x="1607" y="405" width="160" height="110" as="geometry" />
        </mxCell>
        <mxCell id="Oxyt1BQLvzEJ15N276z0-90" value="" style="line;strokeWidth=1;fillColor=none;align=left;verticalAlign=middle;spacingTop=-1;spacingLeft=3;spacingRight=3;rotatable=0;labelPosition=right;points=[];portConstraint=eastwest;strokeColor=inherit;" vertex="1" parent="Oxyt1BQLvzEJ15N276z0-88">
          <mxGeometry y="26" width="160" height="8" as="geometry" />
        </mxCell>
        <mxCell id="Oxyt1BQLvzEJ15N276z0-91" value="+getAllUser/Host()&lt;br&gt;+getUser/HostByID()&lt;br&gt;+disableUser()&lt;br&gt;+deleteUser()" style="text;strokeColor=none;fillColor=none;align=left;verticalAlign=top;spacingLeft=4;spacingRight=4;overflow=hidden;rotatable=0;points=[[0,0.5],[1,0.5]];portConstraint=eastwest;whiteSpace=wrap;html=1;" vertex="1" parent="Oxyt1BQLvzEJ15N276z0-88">
          <mxGeometry y="34" width="160" height="76" as="geometry" />
        </mxCell>
        <mxCell id="Oxyt1BQLvzEJ15N276z0-96" value="Admin Podcast Service" style="swimlane;fontStyle=1;align=center;verticalAlign=top;childLayout=stackLayout;horizontal=1;startSize=26;horizontalStack=0;resizeParent=1;resizeParentMax=0;resizeLast=0;collapsible=1;marginBottom=0;whiteSpace=wrap;html=1;" vertex="1" parent="1">
          <mxGeometry x="1607" y="530" width="160" height="80" as="geometry" />
        </mxCell>
        <mxCell id="Oxyt1BQLvzEJ15N276z0-97" value="" style="line;strokeWidth=1;fillColor=none;align=left;verticalAlign=middle;spacingTop=-1;spacingLeft=3;spacingRight=3;rotatable=0;labelPosition=right;points=[];portConstraint=eastwest;strokeColor=inherit;" vertex="1" parent="Oxyt1BQLvzEJ15N276z0-96">
          <mxGeometry y="26" width="160" height="8" as="geometry" />
        </mxCell>
        <mxCell id="Oxyt1BQLvzEJ15N276z0-98" value="+getAllPodcast()&lt;br&gt;+deletePodcast()" style="text;strokeColor=none;fillColor=none;align=left;verticalAlign=top;spacingLeft=4;spacingRight=4;overflow=hidden;rotatable=0;points=[[0,0.5],[1,0.5]];portConstraint=eastwest;whiteSpace=wrap;html=1;" vertex="1" parent="Oxyt1BQLvzEJ15N276z0-96">
          <mxGeometry y="34" width="160" height="46" as="geometry" />
        </mxCell>
        <mxCell id="Oxyt1BQLvzEJ15N276z0-99" value="Admin Analytics Service" style="swimlane;fontStyle=1;align=center;verticalAlign=top;childLayout=stackLayout;horizontal=1;startSize=26;horizontalStack=0;resizeParent=1;resizeParentMax=0;resizeLast=0;collapsible=1;marginBottom=0;whiteSpace=wrap;html=1;" vertex="1" parent="1">
          <mxGeometry x="1607" y="624" width="160" height="90" as="geometry" />
        </mxCell>
        <mxCell id="Oxyt1BQLvzEJ15N276z0-101" value="" style="line;strokeWidth=1;fillColor=none;align=left;verticalAlign=middle;spacingTop=-1;spacingLeft=3;spacingRight=3;rotatable=0;labelPosition=right;points=[];portConstraint=eastwest;strokeColor=inherit;" vertex="1" parent="Oxyt1BQLvzEJ15N276z0-99">
          <mxGeometry y="26" width="160" height="8" as="geometry" />
        </mxCell>
        <mxCell id="Oxyt1BQLvzEJ15N276z0-102" value="+getPodcastAnalytics()&lt;br&gt;+getUserAnalytics()&lt;br&gt;+getHostAnalytics()" style="text;strokeColor=none;fillColor=none;align=left;verticalAlign=top;spacingLeft=4;spacingRight=4;overflow=hidden;rotatable=0;points=[[0,0.5],[1,0.5]];portConstraint=eastwest;whiteSpace=wrap;html=1;" vertex="1" parent="Oxyt1BQLvzEJ15N276z0-99">
          <mxGeometry y="34" width="160" height="56" as="geometry" />
        </mxCell>
        <mxCell id="Oxyt1BQLvzEJ15N276z0-103" value="Managing Website Service" style="swimlane;fontStyle=1;align=center;verticalAlign=top;childLayout=stackLayout;horizontal=1;startSize=26;horizontalStack=0;resizeParent=1;resizeParentMax=0;resizeLast=0;collapsible=1;marginBottom=0;whiteSpace=wrap;html=1;" vertex="1" parent="1">
          <mxGeometry x="1607" y="740" width="160" height="90" as="geometry" />
        </mxCell>
        <mxCell id="Oxyt1BQLvzEJ15N276z0-104" value="" style="line;strokeWidth=1;fillColor=none;align=left;verticalAlign=middle;spacingTop=-1;spacingLeft=3;spacingRight=3;rotatable=0;labelPosition=right;points=[];portConstraint=eastwest;strokeColor=inherit;" vertex="1" parent="Oxyt1BQLvzEJ15N276z0-103">
          <mxGeometry y="26" width="160" height="8" as="geometry" />
        </mxCell>
        <mxCell id="Oxyt1BQLvzEJ15N276z0-105" value="+help()&lt;br&gt;+updateFAQ()&lt;br&gt;+closeServer()" style="text;strokeColor=none;fillColor=none;align=left;verticalAlign=top;spacingLeft=4;spacingRight=4;overflow=hidden;rotatable=0;points=[[0,0.5],[1,0.5]];portConstraint=eastwest;whiteSpace=wrap;html=1;" vertex="1" parent="Oxyt1BQLvzEJ15N276z0-103">
          <mxGeometry y="34" width="160" height="56" as="geometry" />
        </mxCell>
        <mxCell id="Oxyt1BQLvzEJ15N276z0-107" value="Import" style="endArrow=open;endSize=12;dashed=1;html=1;rounded=0;entryX=0.5;entryY=1;entryDx=0;entryDy=0;exitX=0.5;exitY=0;exitDx=0;exitDy=0;" edge="1" parent="1" source="Oxyt1BQLvzEJ15N276z0-46" target="Oxyt1BQLvzEJ15N276z0-41">
          <mxGeometry width="160" relative="1" as="geometry">
            <mxPoint x="860" y="500" as="sourcePoint" />
            <mxPoint x="1020" y="500" as="targetPoint" />
            <Array as="points">
              <mxPoint x="800" y="640" />
              <mxPoint x="1060" y="640" />
            </Array>
          </mxGeometry>
        </mxCell>
        <mxCell id="Oxyt1BQLvzEJ15N276z0-108" value="Import" style="endArrow=open;endSize=12;dashed=1;html=1;rounded=0;entryX=0.5;entryY=1;entryDx=0;entryDy=0;" edge="1" parent="1" target="Oxyt1BQLvzEJ15N276z0-45">
          <mxGeometry width="160" relative="1" as="geometry">
            <mxPoint x="1060" y="640" as="sourcePoint" />
            <mxPoint x="1020" y="500" as="targetPoint" />
            <Array as="points">
              <mxPoint x="1420" y="640" />
            </Array>
          </mxGeometry>
        </mxCell>
        <mxCell id="Oxyt1BQLvzEJ15N276z0-113" value="Use" style="endArrow=open;endSize=12;dashed=1;html=1;rounded=0;entryX=0;entryY=0;entryDx=290;entryDy=14;entryPerimeter=0;exitX=0.477;exitY=1.001;exitDx=0;exitDy=0;exitPerimeter=0;" edge="1" parent="1" source="Oxyt1BQLvzEJ15N276z0-24" target="Oxyt1BQLvzEJ15N276z0-64">
          <mxGeometry width="160" relative="1" as="geometry">
            <mxPoint x="1310" y="1020" as="sourcePoint" />
            <mxPoint x="1270" y="1000" as="targetPoint" />
          </mxGeometry>
        </mxCell>
        <mxCell id="Oxyt1BQLvzEJ15N276z0-114" value="Use" style="endArrow=open;endSize=12;dashed=1;html=1;rounded=0;exitX=1;exitY=0.5;exitDx=0;exitDy=0;entryX=0;entryY=0.5;entryDx=0;entryDy=0;" edge="1" parent="1" source="Oxyt1BQLvzEJ15N276z0-47" target="Oxyt1BQLvzEJ15N276z0-66">
          <mxGeometry width="160" relative="1" as="geometry">
            <mxPoint x="1110" y="1000" as="sourcePoint" />
            <mxPoint x="1270" y="1000" as="targetPoint" />
          </mxGeometry>
        </mxCell>
        <mxCell id="Oxyt1BQLvzEJ15N276z0-116" value="Access" style="endArrow=open;endSize=12;dashed=1;html=1;rounded=0;exitX=0.5;exitY=1;exitDx=0;exitDy=0;exitPerimeter=0;entryX=0;entryY=0;entryDx=240;entryDy=14;entryPerimeter=0;" edge="1" parent="1" source="Oxyt1BQLvzEJ15N276z0-74" target="Oxyt1BQLvzEJ15N276z0-54">
          <mxGeometry width="160" relative="1" as="geometry">
            <mxPoint x="1120" y="300" as="sourcePoint" />
            <mxPoint x="1280" y="300" as="targetPoint" />
            <Array as="points">
              <mxPoint x="1244" y="650" />
              <mxPoint x="1360" y="650" />
            </Array>
          </mxGeometry>
        </mxCell>
        <mxCell id="Oxyt1BQLvzEJ15N276z0-117" value="Use" style="endArrow=open;endSize=12;dashed=1;html=1;rounded=0;exitX=1;exitY=0.5;exitDx=0;exitDy=0;entryX=0.5;entryY=1;entryDx=0;entryDy=0;entryPerimeter=0;" edge="1" parent="1" source="Oxyt1BQLvzEJ15N276z0-23" target="Oxyt1BQLvzEJ15N276z0-84">
          <mxGeometry width="160" relative="1" as="geometry">
            <mxPoint x="990" y="500" as="sourcePoint" />
            <mxPoint x="1150" y="500" as="targetPoint" />
            <Array as="points">
              <mxPoint x="660" y="584" />
              <mxPoint x="660" y="950" />
              <mxPoint x="1687" y="950" />
            </Array>
          </mxGeometry>
        </mxCell>
      </root>
    </mxGraphModel>
  </diagram>
</mxfile>
